<svg width="360" height="360" viewBox="0 0 360 360" fill="none" xmlns="http://www.w3.org/2000/svg">
<path fill-rule="evenodd" clip-rule="evenodd" d="M180 360C279.411 360 360 279.411 360 180C360 80.5887 279.411 0 180 0C80.5887 0 0 80.5887 0 180C0 279.411 80.5887 360 180 360Z" fill="#F5F5F8"/>
<mask id="mask0" mask-type="alpha" maskUnits="userSpaceOnUse" x="0" y="0" width="360" height="360">
<path fill-rule="evenodd" clip-rule="evenodd" d="M180 360C279.411 360 360 279.411 360 180C360 80.5887 279.411 0 180 0C80.5887 0 0 80.5887 0 180C0 279.411 80.5887 360 180 360Z" fill="white"/>
</mask>
<g mask="url(#mask0)">
<path fill-rule="evenodd" clip-rule="evenodd" d="M310.964 318.235C300.352 302.884 284.707 291.726 266.737 286.692L225 275V245.001C242.644 231.747 254.231 210.89 254.943 187.297C257.409 188.384 260.131 189 263.001 189C274.046 189 283.001 180.046 283.001 169C283.001 157.954 274.046 149 263.001 149C260.154 149 257.452 149.603 255.001 150.675V145C255.001 103.578 221.422 70.0002 180.001 70.0002H180C138.579 70.0002 105.001 103.578 105.001 145V150.675C102.549 149.603 99.8466 149 97.0006 149C85.9546 149 77.0006 157.954 77.0006 169C77.0006 180.046 85.9546 189 97.0006 189C99.8696 189 102.592 188.385 105.059 187.297C105.77 210.89 117.357 231.747 135 245.001V275L93.2636 286.692C75.2936 291.726 59.6486 302.884 49.0366 318.235L20.0006 360.24V390H340.001V360.24L310.964 318.235Z" fill="#B5683C"/>
<path fill-rule="evenodd" clip-rule="evenodd" d="M180 260C170.752 260 161.9 258.316 153.72 255.255C165.354 262.687 179.17 267 194 267C205.06 267 215.549 264.587 225 260.29V245.001C212.465 254.417 196.885 260 180 260Z" fill="#A3420B"/>
<path d="M107.609 171.919C107.864 170.99 108.001 170.011 108.001 169.001C108.001 162.926 103.076 158.001 97.0012 158.001C95.4822 158.001 94.0352 158.309 92.7192 158.865" stroke="#00004D" stroke-width="2" stroke-linecap="round" stroke-linejoin="round"/>
<path d="M252.392 171.919C252.137 170.99 252.001 170.011 252.001 169.001C252.001 162.926 256.926 158.001 263.001 158.001C264.519 158.001 265.966 158.309 267.283 158.865" stroke="#00004D" stroke-width="2" stroke-linecap="round" stroke-linejoin="round"/>
<path d="M192.559 218.009C189.901 222.212 185.212 225.002 179.872 225.002C174.699 225.002 170.137 222.383 167.44 218.398" stroke="#00004D" stroke-width="2" stroke-linecap="round" stroke-linejoin="round"/>
<path fill-rule="evenodd" clip-rule="evenodd" d="M213 175.928C215.541 175.928 217.895 176.723 219.834 178.071C220.569 176.862 221 175.448 221 173.928C221 169.51 217.418 165.928 213 165.928C208.582 165.928 205 169.51 205 173.928C205 175.448 205.431 176.862 206.166 178.071C208.105 176.723 210.459 175.928 213 175.928" fill="#00004D"/>
<path fill-rule="evenodd" clip-rule="evenodd" d="M147 175.928C149.541 175.928 151.895 176.723 153.834 178.071C154.569 176.862 155 175.448 155 173.928C155 169.51 151.418 165.928 147 165.928C142.582 165.928 139 169.51 139 173.928C139 175.448 139.431 176.862 140.166 178.071C142.105 176.723 144.459 175.928 147 175.928" fill="#00004D"/>
<path d="M179.843 164L189.604 189.1C191.644 194.345 187.775 200 182.148 200H175.843" stroke="#00004D" stroke-width="2" stroke-linecap="round" stroke-linejoin="round"/>
<path fill-rule="evenodd" clip-rule="evenodd" d="M212.441 66.4149C213.675 62.8359 214.355 58.9989 214.355 55.0009C214.355 35.6709 198.685 20.0009 179.355 20.0009C160.025 20.0009 144.355 35.6709 144.355 55.0009C144.355 59.2089 145.099 63.2429 146.461 66.9799C116.114 80.2359 95.0004 110.892 95.0004 146.065V149.1C95.6584 149.034 96.3244 148.998 97.0004 148.998C103.001 148.998 108.37 151.654 112.036 155.84L112.227 155.794L118.227 119.793L123.712 133.508C125.232 137.304 128.909 139.793 132.998 139.793H227.002C231.09 139.793 234.767 137.304 236.287 133.508L241.772 119.793L247.772 155.794L247.956 155.849C251.622 151.658 256.994 148.998 263 148.998C263.675 148.998 264.341 149.034 265 149.1V144.998C265 109.544 243.291 79.1639 212.441 66.4149" fill="#00004D"/>
<path fill-rule="evenodd" clip-rule="evenodd" d="M340 360.24L310.963 318.235C300.352 302.885 284.707 291.726 266.736 286.692L264.525 286.072L255.581 268.712C253.379 264.437 249.711 261.099 245.248 259.309L225 251.186V275.24C224.997 275.246 224.996 275.25 224.993 275.256L180.256 319.994C180.17 319.994 180.086 320 180 320L135 275V250.936L114.752 259.06C110.289 260.85 106.621 264.188 104.419 268.462L95.325 286.114L93.263 286.692C75.293 291.726 59.648 302.885 49.036 318.235L20 360.24V390H340V360.24Z" fill="#FD9DAA"/>
<path d="M95.3252 286.114L180 335.123L241.291 299.829" stroke="#00004D" stroke-width="2" stroke-linecap="round" stroke-linejoin="round"/>
<path fill-rule="evenodd" clip-rule="evenodd" d="M157 375.123V375.123C155.343 375.123 154 373.779 154 372.123V320.151L160 323.547V372.123C160 373.779 158.657 375.123 157 375.123" fill="#00004D"/>
<path fill-rule="evenodd" clip-rule="evenodd" d="M203 354.123V354.123C201.343 354.123 200 352.779 200 351.123V323.606L206 320.151V351.123C206 352.779 204.657 354.123 203 354.123" fill="#00004D"/>
<path d="M127 267L135 275" stroke="#00004D" stroke-width="2" stroke-linecap="round" stroke-linejoin="round"/>
<path fill-rule="evenodd" clip-rule="evenodd" d="M238.001 175C238.001 187.702 227.703 198 215.001 198C202.299 198 192.001 187.702 192.001 175C192.001 162.297 202.299 152 215.001 152C227.703 152 238.001 162.297 238.001 175Z" stroke="#00004D" stroke-width="4" stroke-linecap="round" stroke-linejoin="round"/>
<path fill-rule="evenodd" clip-rule="evenodd" d="M122.001 175C122.001 187.702 132.298 198 145.001 198C157.704 198 168.001 187.702 168.001 175C168.001 162.297 157.704 152 145.001 152C132.298 152 122.001 162.297 122.001 175Z" stroke="#00004D" stroke-width="4" stroke-linecap="round" stroke-linejoin="round"/>
<path d="M166.575 167.018C168.29 161.226 173.652 157 180 157C186.349 157 191.71 161.226 193.426 167.018" stroke="#00004D" stroke-width="4" stroke-linecap="round" stroke-linejoin="round"/>
</g>
</svg>
