<svg width="360" height="360" viewBox="0 0 360 360" fill="none" xmlns="http://www.w3.org/2000/svg">
<path fill-rule="evenodd" clip-rule="evenodd" d="M180 360C279.411 360 360 279.411 360 180C360 80.5887 279.411 0 180 0C80.5887 0 0 80.5887 0 180C0 279.411 80.5887 360 180 360Z" fill="#F5F5F8"/>
<mask id="mask0" mask-type="alpha" maskUnits="userSpaceOnUse" x="0" y="0" width="360" height="360">
<path fill-rule="evenodd" clip-rule="evenodd" d="M180 360C279.411 360 360 279.411 360 180C360 80.5887 279.411 0 180 0C80.5887 0 0 80.5887 0 180C0 279.411 80.5887 360 180 360Z" fill="white"/>
</mask>
<g mask="url(#mask0)">
<path fill-rule="evenodd" clip-rule="evenodd" d="M310.964 318.235C300.352 302.884 284.707 291.726 266.737 286.692L225 275V245.001C242.644 231.747 254.231 210.89 254.943 187.297C257.409 188.384 260.131 189 263.001 189C274.046 189 283.001 180.046 283.001 169C283.001 157.954 274.046 149 263.001 149C260.154 149 257.452 149.603 255.001 150.675V145C255.001 103.578 221.422 70.0002 180.001 70.0002H180C138.579 70.0002 105.001 103.578 105.001 145V150.675C102.549 149.603 99.8466 149 97.0006 149C85.9546 149 77.0006 157.954 77.0006 169C77.0006 180.046 85.9546 189 97.0006 189C99.8696 189 102.592 188.385 105.059 187.297C105.77 210.89 117.357 231.747 135 245.001V275L93.2636 286.692C75.2936 291.726 59.6486 302.884 49.0366 318.235L20.0006 360.24V390H340.001V360.24L310.964 318.235Z" fill="#FFCF83"/>
<path fill-rule="evenodd" clip-rule="evenodd" d="M180 260C170.752 260 161.9 258.316 153.72 255.255C165.354 262.687 179.17 267 194 267C205.06 267 215.549 264.587 225 260.29V245.001C212.465 254.417 196.885 260 180 260Z" fill="#F7A74F"/>
<path d="M107.609 171.919C107.864 170.99 108.001 170.011 108.001 169.001C108.001 162.926 103.076 158.001 97.0012 158.001C95.4822 158.001 94.0352 158.309 92.7192 158.865" stroke="#00004D" stroke-width="2" stroke-linecap="round" stroke-linejoin="round"/>
<path d="M252.392 171.919C252.137 170.99 252.001 170.011 252.001 169.001C252.001 162.926 256.926 158.001 263.001 158.001C264.519 158.001 265.966 158.309 267.283 158.865" stroke="#00004D" stroke-width="2" stroke-linecap="round" stroke-linejoin="round"/>
<path fill-rule="evenodd" clip-rule="evenodd" d="M205 214.009C205 227.817 193.807 239.009 180 239.009C166.193 239.009 155 227.817 155 214.009H205Z" fill="#AE1328"/>
<path fill-rule="evenodd" clip-rule="evenodd" d="M193.991 234.73C190.384 231.196 185.449 229.009 180 229.009C174.551 229.009 169.616 231.196 166.009 234.73C170.002 237.432 174.816 239.009 180 239.009C185.183 239.009 189.999 237.432 193.991 234.73" fill="#FB344F"/>
<path fill-rule="evenodd" clip-rule="evenodd" d="M195 222.009H165C162.238 222.009 160 219.771 160 217.009V214.009H200V217.009C200 219.771 197.762 222.009 195 222.009" fill="white"/>
<path fill-rule="evenodd" clip-rule="evenodd" d="M221 172C221 176.418 217.418 180 213 180C208.582 180 205 176.418 205 172C205 167.582 208.582 164 213 164C217.418 164 221 167.582 221 172" fill="#00004D"/>
<path fill-rule="evenodd" clip-rule="evenodd" d="M155 172C155 176.418 151.418 180 147 180C142.582 180 139 176.418 139 172C139 167.582 142.582 164 147 164C151.418 164 155 167.582 155 172" fill="#00004D"/>
<path d="M180 164L190 198L176 200" stroke="#00004D" stroke-width="2" stroke-linecap="round" stroke-linejoin="round"/>
<path fill-rule="evenodd" clip-rule="evenodd" d="M260 149.249V145C260 129.654 255.671 115.322 248.18 103.145C241.237 91.8599 231.567 82.4439 220.095 75.7839C208.304 68.9379 194.615 64.9999 180 64.9999C165.384 64.9999 151.696 68.9379 139.905 75.7839C128.433 82.4439 118.763 91.8599 111.82 103.145C104.329 115.322 100 129.654 100 145V149.249C104.172 149.879 107.919 151.784 110.828 154.572C120.042 145.324 127.462 134.29 132.51 122.023C146.638 129.662 162.812 134 180 134C197.188 134 213.362 129.662 227.49 122.023C232.537 134.29 239.959 145.324 249.172 154.572C252.081 151.784 255.828 149.879 260 149.249" fill="#6A2405"/>
<path fill-rule="evenodd" clip-rule="evenodd" d="M20 360.239V390H340V360.24L310.964 318.235C300.351 302.884 284.707 291.726 266.736 286.692L237.219 278.422L180 347.355L122.781 278.422L93.264 286.692C75.293 291.726 59.648 302.884 49.036 318.235L20 360.239Z" fill="#9BC5FF"/>
<path fill-rule="evenodd" clip-rule="evenodd" d="M207 217.443H153V217.442C153 209.711 159.268 203.443 167 203.443H193C200.732 203.443 207 209.711 207 217.442V217.443Z" fill="#00004D"/>
<path fill-rule="evenodd" clip-rule="evenodd" d="M238.001 175C238.001 187.702 227.703 198 215.001 198C202.299 198 192.001 187.702 192.001 175C192.001 162.297 202.299 152 215.001 152C227.703 152 238.001 162.297 238.001 175Z" stroke="#00004D" stroke-width="4" stroke-linecap="round" stroke-linejoin="round"/>
<path fill-rule="evenodd" clip-rule="evenodd" d="M122.001 175C122.001 187.702 132.298 198 145.001 198C157.704 198 168.001 187.702 168.001 175C168.001 162.297 157.704 152 145.001 152C132.298 152 122.001 162.297 122.001 175Z" stroke="#00004D" stroke-width="4" stroke-linecap="round" stroke-linejoin="round"/>
<path d="M166.575 167.018C168.29 161.226 173.652 157 180 157C186.349 157 191.71 161.226 193.426 167.018" stroke="#00004D" stroke-width="4" stroke-linecap="round" stroke-linejoin="round"/>
</g>
</svg>
