<svg width="360" height="360" viewBox="0 0 360 360" fill="none" xmlns="http://www.w3.org/2000/svg">
<path fill-rule="evenodd" clip-rule="evenodd" d="M180 360C279.411 360 360 279.411 360 180C360 80.5887 279.411 0 180 0C80.5887 0 0 80.5887 0 180C0 279.411 80.5887 360 180 360Z" fill="#F5F5F8"/>
<mask id="mask0" mask-type="alpha" maskUnits="userSpaceOnUse" x="0" y="0" width="360" height="360">
<path fill-rule="evenodd" clip-rule="evenodd" d="M180 360C279.411 360 360 279.411 360 180C360 80.5887 279.411 0 180 0C80.5887 0 0 80.5887 0 180C0 279.411 80.5887 360 180 360Z" fill="white"/>
</mask>
<g mask="url(#mask0)">
<path fill-rule="evenodd" clip-rule="evenodd" d="M310.964 318.235C300.352 302.884 284.707 291.726 266.737 286.692L225 275V245.001C242.644 231.747 254.231 210.89 254.943 187.297C257.409 188.384 260.131 189 263.001 189C274.046 189 283.001 180.046 283.001 169C283.001 157.954 274.046 149 263.001 149C260.154 149 257.452 149.603 255.001 150.675V145C255.001 103.578 221.422 70.0002 180.001 70.0002H180C138.579 70.0002 105.001 103.578 105.001 145V150.675C102.549 149.603 99.8466 149 97.0006 149C85.9546 149 77.0006 157.954 77.0006 169C77.0006 180.046 85.9546 189 97.0006 189C99.8696 189 102.592 188.385 105.059 187.297C105.77 210.89 117.357 231.747 135 245.001V275L93.2636 286.692C75.2936 291.726 59.6486 302.884 49.0366 318.235L20.0006 360.24V390H340.001V360.24L310.964 318.235Z" fill="#E9ADA1"/>
<path fill-rule="evenodd" clip-rule="evenodd" d="M180 260C170.752 260 161.9 258.316 153.72 255.255C165.354 262.687 179.17 267 194 267C205.06 267 215.549 264.587 225 260.29V245.001C212.465 254.417 196.885 260 180 260Z" fill="#DB8B79"/>
<path d="M107.609 171.919C107.864 170.99 108.001 170.011 108.001 169.001C108.001 162.926 103.076 158.001 97.0012 158.001C95.4822 158.001 94.0352 158.309 92.7192 158.865" stroke="#00004D" stroke-width="2" stroke-linecap="round" stroke-linejoin="round"/>
<path d="M252.392 171.919C252.137 170.99 252.001 170.011 252.001 169.001C252.001 162.926 256.926 158.001 263.001 158.001C264.519 158.001 265.966 158.309 267.283 158.865" stroke="#00004D" stroke-width="2" stroke-linecap="round" stroke-linejoin="round"/>
<path fill-rule="evenodd" clip-rule="evenodd" d="M200 214.009C200 225.055 191.046 234.009 180 234.009C168.954 234.009 160 225.055 160 214.009H200Z" fill="white"/>
<path fill-rule="evenodd" clip-rule="evenodd" d="M221 172C221 176.418 217.418 180 213 180C208.582 180 205 176.418 205 172C205 167.582 208.582 164 213 164C217.418 164 221 167.582 221 172" fill="#00004D"/>
<path fill-rule="evenodd" clip-rule="evenodd" d="M155 172C155 176.418 151.418 180 147 180C142.582 180 139 176.418 139 172C139 167.582 142.582 164 147 164C151.418 164 155 167.582 155 172" fill="#00004D"/>
<path d="M179.843 164L189.604 189.1C191.644 194.345 187.775 200 182.148 200H175.843" stroke="#00004D" stroke-width="2" stroke-linecap="round" stroke-linejoin="round"/>
<path fill-rule="evenodd" clip-rule="evenodd" d="M111.32 155.054C109.527 153.214 107.387 151.719 105 150.676C102.549 149.604 99.847 149 97 149C96.325 149 95.658 149.036 95 149.102V145C95 98.0556 133.056 59.9996 180 59.9996C226.944 59.9996 265 98.0556 265 145V149.102C264.342 149.036 263.675 149 263 149C260.153 149 257.451 149.604 255 150.676C252.411 151.808 250.12 153.479 248.241 155.537C212.705 152.781 180.641 137.654 156.36 114.441C145.953 132.222 130.199 146.473 111.32 155.054ZM254.941 187.297C254.23 210.891 242.643 231.748 225 245.001V275L265 286.206V188.9C264.341 188.965 263.674 189 263 189C260.13 189 257.408 188.385 254.941 187.297ZM135 245.001C117.356 231.748 105.77 210.891 105.058 187.297C102.591 188.385 99.869 189 97 189C96.325 189 95.658 188.965 95 188.899V286.206L135 275V245.001Z" fill="#00004D"/>
<path fill-rule="evenodd" clip-rule="evenodd" d="M310.964 318.235C300.352 302.884 284.707 291.726 266.736 286.692L240.057 279.217L229 261H225V268.49L180 310L179.999 309.999L135 268.49V261H131L119.944 279.217L93.2639 286.692C75.2929 291.726 59.6489 302.884 49.0359 318.235L19.9999 360.239V390H340V360.24L310.964 318.235Z" fill="#FD9DAA"/>
<path d="M119.943 279.218L146.25 333.75L180 310" stroke="#00004D" stroke-width="2" stroke-linecap="round" stroke-linejoin="round"/>
<path d="M180 310L213.75 333.75L231.297 297.375" stroke="#00004D" stroke-width="2" stroke-linecap="round" stroke-linejoin="round"/>
</g>
</svg>
