<svg width="360" height="360" viewBox="0 0 360 360" fill="none" xmlns="http://www.w3.org/2000/svg">
<path fill-rule="evenodd" clip-rule="evenodd" d="M180 360C279.411 360 360 279.411 360 180C360 80.5887 279.411 0 180 0C80.5887 0 0 80.5887 0 180C0 279.411 80.5887 360 180 360Z" fill="#F5F5F8"/>
<mask id="mask0" mask-type="alpha" maskUnits="userSpaceOnUse" x="0" y="0" width="360" height="360">
<path fill-rule="evenodd" clip-rule="evenodd" d="M180 360C279.411 360 360 279.411 360 180C360 80.5887 279.411 0 180 0C80.5887 0 0 80.5887 0 180C0 279.411 80.5887 360 180 360Z" fill="white"/>
</mask>
<g mask="url(#mask0)">
<path fill-rule="evenodd" clip-rule="evenodd" d="M310.964 318.235C300.352 302.884 284.707 291.726 266.737 286.692L225 275V245.001C242.644 231.747 254.231 210.89 254.943 187.297C257.409 188.384 260.131 189 263.001 189C274.046 189 283.001 180.046 283.001 169C283.001 157.954 274.046 149 263.001 149C260.154 149 257.452 149.603 255.001 150.675V145C255.001 103.578 221.422 70.0002 180.001 70.0002H180C138.579 70.0002 105.001 103.578 105.001 145V150.675C102.549 149.603 99.8466 149 97.0006 149C85.9546 149 77.0006 157.954 77.0006 169C77.0006 180.046 85.9546 189 97.0006 189C99.8696 189 102.592 188.385 105.059 187.297C105.77 210.89 117.357 231.747 135 245.001V275L93.2636 286.692C75.2936 291.726 59.6486 302.884 49.0366 318.235L20.0006 360.24V390H340.001V360.24L310.964 318.235Z" fill="#FFCF83"/>
<path fill-rule="evenodd" clip-rule="evenodd" d="M180 260C170.752 260 161.9 258.316 153.72 255.255C165.354 262.687 179.17 267 194 267C205.06 267 215.549 264.587 225 260.29V245.001C212.465 254.417 196.885 260 180 260Z" fill="#F7A74F"/>
<path d="M107.609 171.919C107.864 170.99 108.001 170.011 108.001 169.001C108.001 162.926 103.076 158.001 97.0012 158.001C95.4822 158.001 94.0352 158.309 92.7192 158.865" stroke="#00004D" stroke-width="2" stroke-linecap="round" stroke-linejoin="round"/>
<path d="M252.392 171.919C252.137 170.99 252.001 170.011 252.001 169.001C252.001 162.926 256.926 158.001 263.001 158.001C264.519 158.001 265.966 158.309 267.283 158.865" stroke="#00004D" stroke-width="2" stroke-linecap="round" stroke-linejoin="round"/>
<path fill-rule="evenodd" clip-rule="evenodd" d="M221 172C221 176.418 217.418 180 213 180C208.582 180 205 176.418 205 172C205 167.582 208.582 164 213 164C217.418 164 221 167.582 221 172" fill="#00004D"/>
<path fill-rule="evenodd" clip-rule="evenodd" d="M155 172C155 176.418 151.418 180 147 180C142.582 180 139 176.418 139 172C139 167.582 142.582 164 147 164C151.418 164 155 167.582 155 172" fill="#00004D"/>
<path d="M180 164L190 198L176 200" stroke="#00004D" stroke-width="2" stroke-linecap="round" stroke-linejoin="round"/>
<path fill-rule="evenodd" clip-rule="evenodd" d="M260 149.249V145C260 129.654 255.671 115.322 248.18 103.145C241.237 91.8599 231.567 82.4439 220.095 75.7839C208.304 68.9379 194.615 64.9999 180 64.9999C165.384 64.9999 151.696 68.9379 139.905 75.7839C128.433 82.4439 118.763 91.8599 111.82 103.145C104.329 115.322 100 129.654 100 145V149.249C104.172 149.879 107.919 151.784 110.828 154.572C120.042 145.324 127.462 134.29 132.51 122.023C146.638 129.662 162.812 134 180 134C197.188 134 213.362 129.662 227.49 122.023C232.537 134.29 239.959 145.324 249.172 154.572C252.081 151.784 255.828 149.879 260 149.249" fill="#000066"/>
<path fill-rule="evenodd" clip-rule="evenodd" d="M340 360.24L310.964 318.235C300.352 302.885 284.707 291.726 266.736 286.692L225 275C225 299.852 204.853 320 180 320C155.147 320 135 299.852 135 275L93.264 286.692C75.293 291.726 59.648 302.885 49.036 318.235L20 360.24V390H340V360.24Z" fill="#FFCA00"/>
<path d="M233.776 300.64C223.963 320.411 203.568 333.999 180 333.999C148.594 333.999 122.824 309.87 120.216 279.14" stroke="#00004D" stroke-width="2" stroke-linecap="round" stroke-linejoin="round"/>
<path fill-rule="evenodd" clip-rule="evenodd" d="M197.857 232.473L190.04 237.01C183.832 240.614 176.168 240.614 169.96 237.01L162.142 232.473C157.996 230.066 156.141 225.055 157.721 220.529L159.063 216.683C159.624 215.077 161.139 214 162.84 214H197.159C198.86 214 200.375 215.077 200.935 216.683L202.278 220.529C203.858 225.055 202.003 230.066 197.857 232.473M248.221 182.443L243.046 199.33C240.223 208.543 233.147 215.839 224.025 218.943L214.403 222.216L210.555 214.629C207.147 207.91 200.253 203.676 192.718 203.676H180H167.281C159.747 203.676 152.852 207.91 149.444 214.629L145.596 222.216L135.974 218.943C126.852 215.839 119.776 208.543 116.953 199.33L111.778 182.443C109.896 184.511 107.597 186.19 105 187.326V220.971C105 244.702 118.986 266.202 140.678 275.822L163.786 286.067C174.11 290.645 185.889 290.645 196.213 286.067L219.32 275.822C241.013 266.202 255 244.702 255 220.971V187.326C252.402 186.19 250.103 184.511 248.221 182.443" fill="#00004D"/>
<path fill-rule="evenodd" clip-rule="evenodd" d="M228.029 152H198.029C193.646 152 189.931 154.824 188.581 158.748C187.3 157.08 185.294 156 183.029 156H176.5C174.236 156 172.228 157.08 170.949 158.748C169.597 154.824 165.883 152 161.5 152H131.5C125.977 152 121.5 156.478 121.5 162V169C121.5 182.808 132.693 194 146.5 194C160.307 194 171.5 182.808 171.5 169C171.5 165.134 174.634 162 178.5 162H181.029C184.895 162 188.029 165.134 188.029 169C188.029 182.808 199.221 194 213.029 194C226.836 194 238.029 182.808 238.029 169V162C238.029 156.478 233.551 152 228.029 152" fill="#000066"/>
</g>
</svg>
