<svg width="164" height="32" viewBox="0 0 164 32" fill="none" xmlns="http://www.w3.org/2000/svg">
<path d="M16.0001 20C21.1547 20 25.3334 15.8213 25.3334 10.6667C25.3334 5.51203 21.1547 1.33336 16.0001 1.33336C10.8454 1.33336 6.66675 5.51203 6.66675 10.6667C6.66675 15.8213 10.8454 20 16.0001 20Z" stroke="#F8F8F2" stroke-width="2.5" stroke-linecap="round" stroke-linejoin="round"/>
<path d="M10.9466 18.52L9.33325 30.6667L15.9999 26.6667L22.6666 30.6667L21.0533 18.5067" stroke="#F8F8F2" stroke-width="2.5" stroke-linecap="round" stroke-linejoin="round"/>
<path d="M60.0001 20C65.1547 20 69.3334 15.8213 69.3334 10.6667C69.3334 5.51203 65.1547 1.33336 60.0001 1.33336C54.8454 1.33336 50.6667 5.51203 50.6667 10.6667C50.6667 15.8213 54.8454 20 60.0001 20Z" stroke="#BD93F9" stroke-width="2.5" stroke-linecap="round" stroke-linejoin="round"/>
<path d="M54.9466 18.52L53.3333 30.6667L59.9999 26.6667L66.6666 30.6667L65.0533 18.5067" stroke="#BD93F9" stroke-width="2.5" stroke-linecap="round" stroke-linejoin="round"/>
<path d="M104 20C109.155 20 113.333 15.8213 113.333 10.6667C113.333 5.51203 109.155 1.33336 104 1.33336C98.8454 1.33336 94.6667 5.51203 94.6667 10.6667C94.6667 15.8213 98.8454 20 104 20Z" stroke="#50FA7B" stroke-width="2.5" stroke-linecap="round" stroke-linejoin="round"/>
<path d="M98.9466 18.52L97.3333 30.6667L104 26.6667L110.667 30.6667L109.053 18.5067" stroke="#50FA7B" stroke-width="2.5" stroke-linecap="round" stroke-linejoin="round"/>
<path d="M148 20C153.155 20 157.333 15.8213 157.333 10.6667C157.333 5.51203 153.155 1.33336 148 1.33336C142.845 1.33336 138.667 5.51203 138.667 10.6667C138.667 15.8213 142.845 20 148 20Z" stroke="#FF79C6" stroke-width="2.5" stroke-linecap="round" stroke-linejoin="round"/>
<path d="M142.947 18.52L141.333 30.6667L148 26.6667L154.667 30.6667L153.053 18.5067" stroke="#FF79C6" stroke-width="2.5" stroke-linecap="round" stroke-linejoin="round"/>
</svg>
