<svg width="32" height="32" viewBox="0 0 32 32" fill="none" xmlns="http://www.w3.org/2000/svg">
<g clip-path="url(#clip0)">
<path d="M2.58723 24.731C3.18931 25.6518 3.89015 26.5177 4.68629 27.3138C7.70826 30.3357 11.7262 32 16 32C17.1259 32 18.2337 31.8834 19.3106 31.658V25.1856C16.9067 26.5763 14.1696 27.3182 11.3181 27.3182C8.1703 27.3181 5.16178 26.4142 2.58723 24.731V24.731Z" fill="#FFCE71"/>
<path d="M16 0C11.7262 0 7.70827 1.66432 4.68629 4.68629C1.66432 7.70833 0 11.7263 0 16C0 19.1478 0.903919 22.1564 2.58724 24.7309C5.16179 26.4142 8.1703 27.3181 11.3181 27.3181C14.1696 27.3181 16.9067 26.5762 19.3106 25.1855V0.342085C18.2338 0.116668 17.1259 0 16 0V0Z" fill="#676F72"/>
<path d="M22.6318 22.6318C25.6538 19.6098 27.3181 15.5919 27.3181 11.3181C27.3181 8.18571 26.3589 5.12768 24.6909 2.56092C23.0476 1.49397 21.2288 0.743615 19.3105 0.342102C16.2998 0.972315 13.5333 2.46048 11.3075 4.68631C8.28549 7.70835 6.62117 11.7263 6.62117 16C6.62117 20.2737 8.28549 24.2917 11.3075 27.3137C11.3089 27.3152 11.3104 27.3166 11.3119 27.318C11.314 27.318 11.316 27.3181 11.3181 27.3181C15.5919 27.3181 19.6098 25.6538 22.6318 22.6318Z" fill="#82888B"/>
<path d="M27.3137 4.68631C26.506 3.87864 25.6268 3.16859 24.6909 2.56091C26.359 5.12767 27.3181 8.1857 27.3181 11.3181C27.3181 15.5919 25.6538 19.6098 22.6319 22.6318C19.6099 25.6538 15.5919 27.3181 11.3181 27.3182C11.3161 27.3182 11.314 27.3181 11.312 27.3181C13.5371 29.5415 16.3019 31.0282 19.3107 31.658C22.3214 31.0278 25.0879 29.5396 27.3138 27.3138C30.3357 24.2917 32 20.2737 32 16C32 11.7263 30.3357 7.70834 27.3137 4.68631V4.68631Z" fill="#FCE3A0"/>
<path d="M11.3536 9.4326C12.4203 9.4326 13.2851 8.5678 13.2851 7.50102C13.2851 6.43423 12.4203 5.56943 11.3536 5.56943C10.2868 5.56943 9.42197 6.43423 9.42197 7.50102C9.42197 8.5678 10.2868 9.4326 11.3536 9.4326Z" fill="#676F72"/>
<path d="M23.587 7.50102C24.1204 7.50102 24.5528 7.06861 24.5528 6.53522C24.5528 6.00183 24.1204 5.56943 23.587 5.56943C23.0536 5.56943 22.6212 6.00183 22.6212 6.53522C22.6212 7.06861 23.0536 7.50102 23.587 7.50102Z" fill="#676F72"/>
<path d="M5.15097 22.5968C5.15097 24.7303 6.88058 26.4599 9.01415 26.4599C9.47374 26.4599 9.90178 26.3669 10.3045 26.2135C8.63376 24.2059 7.49689 21.8504 6.9657 19.322C5.87615 20.005 5.15097 21.2157 5.15097 22.5968V22.5968Z" fill="#4C5659"/>
<path d="M12.8773 22.5968C12.8773 20.4632 11.1477 18.7336 9.01415 18.7336C8.2616 18.7336 7.55966 18.9496 6.9657 19.3219C7.49688 21.8505 8.63375 24.2059 10.3044 26.2135C10.4341 26.1641 10.5612 26.1085 10.6857 26.0477C10.6893 26.0513 10.693 26.055 10.6857 26.0477C11.9702 25.42 12.8773 24.1228 12.8773 22.5968V22.5968Z" fill="#676F72"/>
</g>
<defs>
<clipPath id="clip0">
<rect width="32" height="32" fill="white"/>
</clipPath>
</defs>
</svg>
