<svg width="164" height="32" viewBox="0 0 164 32" fill="none" xmlns="http://www.w3.org/2000/svg">
<path d="M48 12L60 2.66664L72 12V26.6666C72 27.3739 71.719 28.0522 71.219 28.5523C70.7189 29.0524 70.0406 29.3333 69.3333 29.3333H50.6667C49.9594 29.3333 49.2811 29.0524 48.781 28.5523C48.281 28.0522 48 27.3739 48 26.6666V12Z" stroke="#BD93F9" stroke-width="2.5" stroke-linecap="round" stroke-linejoin="round"/>
<path d="M56 29.3333V16H64V29.3333" stroke="#BD93F9" stroke-width="2.5" stroke-linecap="round" stroke-linejoin="round"/>
<path d="M92 12L104 2.66664L116 12V26.6666C116 27.3739 115.719 28.0522 115.219 28.5523C114.719 29.0524 114.041 29.3333 113.333 29.3333H94.6667C93.9594 29.3333 93.2811 29.0524 92.781 28.5523C92.281 28.0522 92 27.3739 92 26.6666V12Z" stroke="#50FA7B" stroke-width="2.5" stroke-linecap="round" stroke-linejoin="round"/>
<path d="M100 29.3333V16H108V29.3333" stroke="#50FA7B" stroke-width="2.5" stroke-linecap="round" stroke-linejoin="round"/>
<path d="M136 12L148 2.66664L160 12V26.6666C160 27.3739 159.719 28.0522 159.219 28.5523C158.719 29.0524 158.041 29.3333 157.333 29.3333H138.667C137.959 29.3333 137.281 29.0524 136.781 28.5523C136.281 28.0522 136 27.3739 136 26.6666V12Z" stroke="#FF79C6" stroke-width="2.5" stroke-linecap="round" stroke-linejoin="round"/>
<path d="M144 29.3333V16H152V29.3333" stroke="#FF79C6" stroke-width="2.5" stroke-linecap="round" stroke-linejoin="round"/>
<path d="M4 12L16 2.66664L28 12V26.6666C28 27.3739 27.719 28.0522 27.219 28.5523C26.7189 29.0524 26.0406 29.3333 25.3333 29.3333H6.66667C5.95942 29.3333 5.28115 29.0524 4.78105 28.5523C4.28095 28.0522 4 27.3739 4 26.6666V12Z" stroke="#F8F8F2" stroke-width="2.5" stroke-linecap="round" stroke-linejoin="round"/>
<path d="M12 29.3333V16H20V29.3333" stroke="#F8F8F2" stroke-width="2.5" stroke-linecap="round" stroke-linejoin="round"/>
</svg>
