<svg width="48" height="150" viewBox="0 0 48 150" fill="none" xmlns="http://www.w3.org/2000/svg">
<path d="M22.2416 0H32.6817L23.9965 42H13.5564L22.2416 0Z" fill="#BD93F9"/>
<path d="M37.56 0H48L41.2331 32.9078H30.7905L37.56 0Z" fill="#BD93F9"/>
<path d="M6.76946 0H17.2095L10.4425 32.9078H0L6.76946 0Z" fill="#BD93F9"/>
<path d="M22.2416 54H32.6817L23.9965 96H13.5564L22.2416 54Z" fill="#50FA7B"/>
<path d="M37.56 54H48L41.2331 86.9078H30.7905L37.56 54Z" fill="#50FA7B"/>
<path d="M6.76946 54H17.2095L10.4425 86.9078H0L6.76946 54Z" fill="#50FA7B"/>
<path d="M22.2416 108H32.6817L23.9965 150H13.5564L22.2416 108Z" fill="#FF79C6"/>
<path d="M37.56 108H48L41.2331 140.908H30.7905L37.56 108Z" fill="#FF79C6"/>
<path d="M6.76946 108H17.2095L10.4425 140.908H0L6.76946 108Z" fill="#FF79C6"/>
</svg>
