<svg width="32" height="32" viewBox="0 0 32 32" fill="none" xmlns="http://www.w3.org/2000/svg">
<g clip-path="url(#clip0)">
<path d="M15.9974 31.9974C7.16226 31.9974 -1.52588e-05 24.8351 -1.52588e-05 16C-1.52588e-05 7.1649 7.16226 0.00263214 15.9974 0.00263214C24.8325 0.00263214 31.9948 7.1649 31.9948 16C31.9948 24.8351 24.8325 31.9974 15.9974 31.9974Z" fill="#393A59"/>
<path d="M19.8626 6.41935C19.8626 7.46473 20.7101 8.31292 21.7562 8.31292H30.0297C29.16 6.72822 28.0291 5.30671 26.6951 4.10658C26.3706 4.36908 25.9573 4.52577 25.5074 4.52577H21.7562C21.2332 4.52577 20.7598 4.73733 20.417 5.08015C20.0742 5.4229 19.8626 5.89628 19.8626 6.41935Z" fill="#6A6577"/>
<path d="M5.92991 19.217L5.56978 19.9467C5.54315 20.0007 5.49159 20.0382 5.43209 20.0468L4.62677 20.1638C4.47677 20.1856 4.41683 20.3699 4.52546 20.4757L5.10815 21.0437C5.15128 21.0857 5.1709 21.1463 5.16077 21.2056L5.02321 22.0076C4.99759 22.157 5.1544 22.2709 5.28859 22.2004L6.00885 21.8218C6.0621 21.7938 6.12579 21.7938 6.1791 21.8218L6.89936 22.2004C7.03355 22.2709 7.1903 22.157 7.16474 22.0076L7.02717 21.2056C7.01698 21.1462 7.03661 21.0857 7.07973 21.0437L7.66243 20.4757C7.77093 20.37 7.71105 20.1855 7.56111 20.1638L6.75579 20.0468C6.69623 20.0381 6.64473 20.0007 6.61811 19.9467L6.25798 19.217C6.19085 19.0811 5.99697 19.0811 5.92991 19.217Z" fill="#F9D368"/>
<path d="M20.7505 10.986L20.3903 11.7157C20.3637 11.7697 20.3122 11.8072 20.2527 11.8158L19.4473 11.9328C19.2973 11.9546 19.2374 12.1389 19.346 12.2447L19.9287 12.8127C19.9718 12.8547 19.9915 12.9153 19.9813 12.9746L19.8438 13.7766C19.8182 13.926 19.975 14.0399 20.1092 13.9694L20.8294 13.5908C20.8827 13.5628 20.9464 13.5628 20.9997 13.5908L21.7199 13.9694C21.8541 14.0399 22.0109 13.926 21.9853 13.7766L21.8477 12.9746C21.8375 12.9152 21.8572 12.8547 21.9003 12.8127L22.483 12.2447C22.5915 12.139 22.5316 11.9545 22.3817 11.9328L21.5764 11.8158C21.5168 11.8071 21.4653 11.7697 21.4387 11.7157L21.0785 10.986C21.0114 10.8501 20.8176 10.8501 20.7505 10.986Z" fill="#F9D368"/>
<path d="M17.4055 16.5362C17.4055 17.5822 18.2537 18.4298 19.2991 18.4298H27.288C28.334 18.4298 29.1815 17.5816 29.1815 16.5362C29.1815 16.0132 29.3937 15.5398 29.7365 15.197C30.0787 14.8549 30.5527 14.6426 31.0751 14.6426H31.937C31.8273 13.3282 31.5576 12.0595 31.1489 10.8555H23.762C22.7166 10.8555 21.8684 11.703 21.8684 12.749C21.8684 13.7944 21.0209 14.6426 19.9748 14.6426H19.299C18.2537 14.6427 17.4055 15.4902 17.4055 16.5362Z" fill="#6A6577"/>
<path d="M0.0408764 14.8424H8.01144C9.05745 14.8424 9.90502 13.9942 9.90502 12.9489C9.90502 12.4258 10.1172 11.9525 10.46 11.6097C10.8021 11.2675 11.2762 11.0553 11.7986 11.0553H12.9739C14.0199 11.0553 14.8675 10.2071 14.8675 9.1617C14.8675 8.63869 14.6559 8.16531 14.3131 7.8225C13.9703 7.48037 13.4969 7.26812 12.9739 7.26812H4.48554C3.44015 7.26812 2.59196 8.11563 2.59196 9.1617C2.59196 10.1796 1.7882 11.0108 0.779383 11.0533C0.387567 12.2593 0.134877 13.5294 0.0408764 14.8424Z" fill="#6A6577"/>
<path d="M9.49239 11.6283C11.717 16.3288 17.3123 18.3508 22.0226 16.1725C26.7686 13.9778 28.8449 8.25456 26.6081 3.52821C26.3754 3.03665 26.1059 2.57452 25.8043 2.14339C25.5212 1.73864 25.9941 1.23895 26.4116 1.50295C28.2771 2.68302 29.8398 4.39097 30.8495 6.53736C33.6756 12.5454 31.1183 19.6702 25.1169 22.5104C19.1193 25.3488 11.9563 22.7877 9.11795 16.7901C8.10744 14.6548 7.7815 12.3718 8.05125 10.189C8.11157 9.70057 8.7982 9.6552 8.9312 10.1291C9.07332 10.6355 9.25976 11.1369 9.49239 11.6283Z" fill="#F9D368"/>
<path d="M14.2341 28.228C14.2341 29.2734 15.0816 30.1216 16.1277 30.1216H23.5198C27.5158 27.989 30.4999 24.2091 31.5668 19.6893C31.2371 19.133 30.6305 18.7602 29.937 18.7602H21.4487C20.9257 18.7602 20.4529 18.9718 20.1101 19.3146C19.7673 19.6574 19.5551 20.1308 19.5551 20.6538C19.5551 21.6992 20.4033 22.5474 21.4487 22.5474H22.624C23.67 22.5474 24.5176 23.3949 24.5176 24.4409C24.5176 25.4863 23.6701 26.3345 22.624 26.3345H16.1277C15.6047 26.3345 15.1314 26.5461 14.7885 26.8889C14.4457 27.2317 14.2341 27.705 14.2341 28.228Z" fill="#6A6577"/>
<path d="M14.266 2.9299L13.9059 3.65959C13.8792 3.71359 13.8277 3.75103 13.7682 3.75965L12.9628 3.87665C12.8128 3.89847 12.7529 4.08278 12.8615 4.18859L13.4442 4.7566C13.4873 4.7986 13.507 4.85916 13.4969 4.91847L13.3593 5.72048C13.3337 5.86986 13.4905 5.98379 13.6247 5.91329L14.3449 5.53467C14.3982 5.50667 14.4619 5.50667 14.5152 5.53467L15.2354 5.91329C15.3696 5.98379 15.5264 5.86986 15.5008 5.72048L15.3632 4.91847C15.3531 4.8591 15.3727 4.7986 15.4158 4.7566L15.9985 4.18859C16.107 4.08284 16.0471 3.8984 15.8972 3.87665L15.0919 3.75965C15.0323 3.75097 14.9808 3.71353 14.9542 3.65959L14.594 2.9299C14.5269 2.79402 14.3331 2.79402 14.266 2.9299Z" fill="#F9D368"/>
<path d="M0.833555 21.1108C2.0095 24.6015 4.35752 27.5534 7.40948 29.4986C7.75098 29.007 8.32036 28.6851 8.96418 28.6851H10.1395C10.6625 28.6851 11.1359 28.4729 11.4787 28.1301C11.8208 27.7879 12.0331 27.3139 12.0331 26.7915C12.0331 25.7455 11.1856 24.8979 10.1395 24.8979H8.96418C8.44118 24.8979 7.96842 24.6857 7.62561 24.3429C7.28279 24.0008 7.0706 23.5267 7.0706 23.0043C7.0706 21.9583 6.2231 21.1108 5.17703 21.1108H0.833555Z" fill="#6A6577"/>
</g>
<defs>
<clipPath id="clip0">
<rect width="32" height="32" fill="white" transform="matrix(-1 0 0 1 32 0)"/>
</clipPath>
</defs>
</svg>
