<svg width="32" height="32" viewBox="0 0 32 32" fill="none" xmlns="http://www.w3.org/2000/svg">
<path d="M13.8581 31.8594C14.9486 32.0045 16.0619 32.0388 17.1847 31.9554C21.4464 31.6389 25.3298 29.6818 28.1195 26.4445C28.8545 25.5916 29.4892 24.6763 30.0215 23.7134L25.1188 19.4884C24.6031 22.2172 23.3784 24.7747 21.517 26.9347C19.4622 29.3191 16.8137 31.008 13.8581 31.8594Z" fill="#FFCE71"/>
<path d="M3.88037 5.55581C1.09062 8.79313 -0.271478 12.9231 0.0449512 17.1848C0.36144 21.4466 2.31853 25.3301 5.55575 28.1199C7.9402 30.1747 10.8091 31.4539 13.858 31.8594C16.8137 31.008 19.4622 29.3191 21.517 26.9347C23.3784 24.7749 24.603 22.2172 25.1188 19.4885L6.3005 3.27133C5.42686 3.9399 4.61532 4.70295 3.88037 5.55581Z" fill="#676F72"/>
<path d="M25.3523 15.3057C25.036 11.0439 23.0788 7.16042 19.8416 4.37067C17.4689 2.32592 14.5264 1.05627 11.4933 0.644287C9.61239 1.19257 7.8568 2.08046 6.30051 3.27143C4.81261 5.96339 4.13395 9.03042 4.36704 12.1694C4.68351 16.4312 6.64058 20.3147 9.87777 23.1045C13.1151 25.8942 17.245 27.2563 21.5067 26.9399C21.5088 26.9397 21.5108 26.9396 21.5129 26.9394C21.5142 26.9379 21.5156 26.9363 21.517 26.9348C24.3067 23.6974 25.6688 19.5675 25.3523 15.3057Z" fill="#82888B"/>
<path d="M14.8153 0.0449415C13.6763 0.129557 12.5646 0.331986 11.4934 0.644259C14.5265 1.05624 17.4689 2.32593 19.8416 4.37058C23.0789 7.16043 25.036 11.0439 25.3524 15.3057C25.6689 19.5675 24.3067 23.6974 21.517 26.9348C21.5157 26.9363 21.5143 26.9379 21.513 26.9394C24.6496 26.7053 27.5805 25.5814 30.0215 23.7134C31.5095 21.0215 32.1882 17.9544 31.9551 14.8154C31.6385 10.5536 29.6815 6.67015 26.4442 3.8804C23.207 1.09066 19.0771 -0.271451 14.8153 0.0449415Z" fill="#FCE3A0"/>
<path d="M7.99229 15.2327C8.68865 14.4246 8.59815 13.2051 7.79001 12.5087C6.98196 11.8124 5.76244 11.9029 5.06609 12.7109C4.36974 13.5191 4.46023 14.7386 5.26828 15.435C6.07642 16.1313 7.29594 16.0408 7.99229 15.2327Z" fill="#676F72"/>
<path d="M14.5148 4.70514C14.8629 4.30116 14.8176 3.69139 14.4136 3.34321C14.0096 2.99498 13.3998 3.04023 13.0516 3.44431C12.7034 3.84838 12.7487 4.45815 13.1527 4.80633C13.5567 5.15451 14.1666 5.10922 14.5148 4.70514Z" fill="#676F72"/>
<path d="M13.915 28.5243C15.5311 29.917 17.9703 29.7359 19.363 28.1198C19.663 27.7716 19.8719 27.3867 20.0186 26.9816C17.4074 26.9366 14.8809 26.2601 12.619 25.012C12.4252 26.2832 12.8689 27.6228 13.915 28.5243Z" fill="#4C5659"/>
<path d="M18.9584 22.6717C17.3424 21.279 14.9032 21.4601 13.5105 23.0763C13.0192 23.6462 12.7247 24.319 12.619 25.012C14.881 26.2601 17.4073 26.9366 20.0186 26.9815C20.0658 26.8511 20.1066 26.7186 20.1418 26.5845C20.147 26.5841 20.1522 26.5837 20.1418 26.5845C20.5049 25.2018 20.1144 23.6678 18.9584 22.6717Z" fill="#676F72"/>
</svg>
