<svg width="32" height="32" viewBox="0 0 32 32" fill="none" xmlns="http://www.w3.org/2000/svg">
<path d="M11.5701 30.6368C11.231 30.7993 11.2719 31.2922 11.6338 31.3945C17.1319 32.9499 23.287 31.5047 27.5305 27.1058C33.6476 20.7647 33.4623 10.5963 27.1183 4.4821C22.7132 0.236565 16.5019 -0.981878 11.0604 0.779925C10.708 0.894051 10.6851 1.38039 11.0249 1.52784C12.7317 2.26877 14.3374 3.32193 15.7558 4.68894C22.1271 10.8293 22.3114 20.9443 16.1682 27.3126C14.8046 28.7262 13.2434 29.8348 11.5701 30.6368Z" fill="#008FE0"/>
<path d="M11.5701 30.6368C11.231 30.7993 11.2719 31.2922 11.6338 31.3945C17.1319 32.9499 23.287 31.5047 27.5305 27.1058C33.6476 20.7647 33.4623 10.5963 27.1183 4.4821C22.7132 0.236565 16.5019 -0.981878 11.0604 0.779925C10.708 0.894051 10.6851 1.38039 11.0249 1.52784C12.7317 2.26877 14.3374 3.32193 15.7558 4.68894C22.1271 10.8293 22.3114 20.9443 16.1682 27.3126C14.8046 28.7262 13.2434 29.8348 11.5701 30.6368Z" fill="#008FE0"/>
<path d="M4.89649 27.5179C6.86847 29.4184 9.20247 30.7124 11.6674 31.4039C14.1053 30.6232 16.3907 29.2451 18.2921 27.2739C24.4286 20.9129 24.244 10.7839 17.8799 4.6503C15.9079 2.74977 13.5739 1.45575 11.1091 0.764242C8.67106 1.54504 6.38576 2.92307 4.48425 4.89415C-1.65218 11.2553 -1.46761 21.3842 4.89649 27.5179Z" fill="#FDED32"/>
<path d="M4.89649 27.5179C6.86847 29.4184 9.20247 30.7124 11.6674 31.4039C14.1053 30.6232 16.3907 29.2451 18.2921 27.2739C24.4286 20.9129 24.244 10.7839 17.8799 4.6503C15.9079 2.74977 13.5739 1.45575 11.1091 0.764242C8.67106 1.54504 6.38576 2.92307 4.48425 4.89415C-1.65218 11.2553 -1.46761 21.3842 4.89649 27.5179Z" fill="url(#paint0_linear)"/>
<defs>
<linearGradient id="paint0_linear" x1="-5.57371" y1="17.4268" x2="50.5118" y2="12.3111" gradientUnits="userSpaceOnUse">
<stop stop-color="#FD9332"/>
<stop offset="0.734529" stop-color="#FDED32" stop-opacity="0"/>
</linearGradient>
</defs>
</svg>
