<svg width="32" height="32" viewBox="0 0 32 32" fill="none" xmlns="http://www.w3.org/2000/svg">
<g clip-path="url(#clip0)">
<path d="M2.33253 22.8139C1.98797 22.6856 1.66885 23.0489 1.84228 23.3731C4.47803 28.2982 9.6721 31.6487 15.6487 31.6487C24.264 31.6487 31.2974 24.6153 31.2974 16C31.2974 10.0177 27.9405 4.81948 23.0077 2.18615C22.6882 2.01562 22.3303 2.32967 22.457 2.6689C23.0936 4.37307 23.4417 6.21796 23.4417 8.14418C23.4417 16.7964 16.4453 23.7929 7.7931 23.793C5.87247 23.793 4.0326 23.4469 2.33253 22.8139Z" fill="#008FE0"/>
<path d="M2.33253 22.8139C1.98797 22.6856 1.66885 23.0489 1.84228 23.3731C4.47803 28.2982 9.6721 31.6487 15.6487 31.6487C24.264 31.6487 31.2974 24.6153 31.2974 16C31.2974 10.0177 27.9405 4.81948 23.0077 2.18615C22.6882 2.01562 22.3303 2.32967 22.457 2.6689C23.0936 4.37307 23.4417 6.21796 23.4417 8.14418C23.4417 16.7964 16.4453 23.7929 7.7931 23.793C5.87247 23.793 4.0326 23.4469 2.33253 22.8139Z" fill="#008FE0"/>
<path d="M0 16C0 18.6781 0.672749 21.199 1.85844 23.4031C4.06244 24.5887 6.58344 25.2615 9.2615 25.2615C17.9041 25.2615 24.9102 18.2553 24.9102 9.61275C24.9102 6.93475 24.2374 4.41376 23.0517 2.20973C20.8477 1.02406 18.3267 0.351299 15.6487 0.351299C7.00612 0.351299 0 7.35744 0 16Z" fill="#FDED32"/>
<path d="M0 16C0 18.6781 0.672749 21.199 1.85844 23.4031C4.06244 24.5887 6.58344 25.2615 9.2615 25.2615C17.9041 25.2615 24.9102 18.2553 24.9102 9.61275C24.9102 6.93475 24.2374 4.41376 23.0517 2.20973C20.8477 1.02406 18.3267 0.351299 15.6487 0.351299C7.00612 0.351299 0 7.35744 0 16Z" fill="url(#paint0_linear)"/>
</g>
<defs>
<linearGradient id="paint0_linear" x1="-9.15119e-07" y1="1.78125" x2="41.6562" y2="37.7813" gradientUnits="userSpaceOnUse">
<stop stop-color="#FD9332"/>
<stop offset="0.734529" stop-color="#FDED32" stop-opacity="0"/>
</linearGradient>
<clipPath id="clip0">
<rect width="32" height="32" fill="white" transform="matrix(-1 0 0 1 32 0)"/>
</clipPath>
</defs>
</svg>
