<svg width="32" height="32" viewBox="0 0 32 32" fill="none" xmlns="http://www.w3.org/2000/svg">
<g clip-path="url(#clip0)">
<path d="M2.33253 22.8139C1.98797 22.6856 1.66885 23.0489 1.84228 23.3731C4.47803 28.2982 9.6721 31.6487 15.6487 31.6487C24.264 31.6487 31.2974 24.6153 31.2974 16C31.2974 10.0177 27.9405 4.81948 23.0077 2.18615C22.6882 2.01562 22.3303 2.32967 22.457 2.6689C23.0936 4.37307 23.4417 6.21796 23.4417 8.14418C23.4417 16.7964 16.4453 23.7929 7.7931 23.793C5.87247 23.793 4.0326 23.4469 2.33253 22.8139Z" fill="#008FE0"/>
<path d="M2.33253 22.8139C1.98797 22.6856 1.66885 23.0489 1.84228 23.3731C4.47803 28.2982 9.6721 31.6487 15.6487 31.6487C24.264 31.6487 31.2974 24.6153 31.2974 16C31.2974 10.0177 27.9405 4.81948 23.0077 2.18615C22.6882 2.01562 22.3303 2.32967 22.457 2.6689C23.0936 4.37307 23.4417 6.21796 23.4417 8.14418C23.4417 16.7964 16.4453 23.7929 7.7931 23.793C5.87247 23.793 4.0326 23.4469 2.33253 22.8139Z" fill="#008FE0"/>
<path d="M0 16C0 18.6781 0.672749 21.199 1.85844 23.4031C4.06244 24.5887 6.58344 25.2615 9.2615 25.2615C17.9041 25.2615 24.9102 18.2553 24.9102 9.61275C24.9102 6.93475 24.2374 4.41376 23.0517 2.20973C20.8477 1.02406 18.3267 0.351299 15.6487 0.351299C7.00612 0.351299 0 7.35744 0 16Z" fill="#FDED32"/>
<path d="M0 16C0 18.6781 0.672749 21.199 1.85844 23.4031C4.06244 24.5887 6.58344 25.2615 9.2615 25.2615C17.9041 25.2615 24.9102 18.2553 24.9102 9.61275C24.9102 6.93475 24.2374 4.41376 23.0517 2.20973C20.8477 1.02406 18.3267 0.351299 15.6487 0.351299C7.00612 0.351299 0 7.35744 0 16Z" fill="url(#paint0_linear)"/>
<path d="M25.6714 28H19.5127C18.1246 28 17 27.1041 17 26C17 25.4476 17.2808 24.9477 17.7357 24.5856C18.1906 24.2235 18.8188 24 19.5128 24H28.1331C28.5138 24 28.8747 23.9327 29.198 23.8121C28.2739 25.406 27.0767 26.8236 25.6714 28Z" fill="#EEF9FF"/>
<path d="M31.2974 16C31.2974 17.8086 30.9874 19.5475 30.4179 21.1663C30.0209 20.4779 29.1473 20 28.1331 20H26.5735C25.1863 20 24.0608 19.1042 24.0608 18C24.0608 17.4476 24.3424 16.9476 24.7973 16.5855C25.2522 16.2235 25.8795 16 26.5735 16L31.2974 16Z" fill="#EEF9FF"/>
<path d="M0.152311 18.192C0.411489 20.041 0.993776 21.7864 1.84025 23.3692L1.84231 23.3731C2.55724 24.709 3.4604 25.9291 4.51635 26.9979C4.88419 26.7767 5.32903 26.6789 5.78588 26.7511L6.94678 26.9347C7.46336 27.0164 7.96407 26.8807 8.35622 26.5956C8.74758 26.3111 9.03126 25.876 9.11284 25.3601C9.2762 24.3269 8.57145 23.3574 7.53822 23.194L6.37732 23.0104C5.86073 22.9288 5.42692 22.6453 5.14185 22.2532C4.85667 21.8617 4.72112 21.3603 4.8027 20.8444C4.96605 19.8112 4.26131 18.8417 3.22808 18.6783L0.152311 18.192Z" fill="#EEF9FF"/>
<path d="M30.1899 10.2063H22.7264C21.6804 10.2063 20.8329 9.35815 20.8329 8.31277C20.8329 7.7897 21.0444 7.31632 21.3872 6.97357C21.7301 6.63075 22.2034 6.41919 22.7264 6.41919H26.4777C26.9275 6.41919 27.3409 6.2625 27.6654 6C27.6927 6.0246 27.72 6.04929 27.7471 6.07407C28.7606 7.30787 29.589 8.69943 30.1899 10.2063Z" fill="#EEF9FF"/>
<path d="M31.1697 18C30.8059 20.8272 29.6818 23.4229 28.0104 25.5743H22.067C21.544 25.5743 21.0706 25.3621 20.7278 25.0199C20.385 24.6771 20.1734 24.2037 20.1734 23.6807C20.1734 22.6353 21.021 21.7872 22.067 21.7872H23.2423C23.7647 21.7872 24.2387 21.5749 24.5809 21.2328C24.9237 20.89 25.1359 20.4166 25.1359 19.8936C25.1359 18.8482 25.9834 18 27.0294 18L31.1697 18Z" fill="#ADCBDC"/>
</g>
<defs>
<linearGradient id="paint0_linear" x1="-9.15119e-07" y1="1.78125" x2="41.6562" y2="37.7813" gradientUnits="userSpaceOnUse">
<stop stop-color="#FD9332"/>
<stop offset="0.734529" stop-color="#FDED32" stop-opacity="0"/>
</linearGradient>
<clipPath id="clip0">
<rect width="32" height="32" fill="white" transform="matrix(-1 0 0 1 32 0)"/>
</clipPath>
</defs>
</svg>
