<svg width="32" height="32" viewBox="0 0 32 32" fill="none" xmlns="http://www.w3.org/2000/svg">
<g clip-path="url(#clip0)">
<path d="M31.4854 17.2669L29.2615 19.5535L30.0447 22.6431C30.2869 23.5987 29.7236 24.5733 28.7749 24.8404L25.7056 25.7047L24.8413 28.774C24.5742 29.7227 23.5996 30.2859 22.644 30.0438L19.5544 29.2606L17.2678 31.4844C16.562 32.1707 15.438 32.1707 14.7322 31.4844L12.4456 29.2606L9.35596 30.0438C8.40039 30.2859 7.42578 29.7227 7.15869 28.774L6.29443 25.7047L3.2251 24.8404C2.27637 24.5733 1.71313 23.5987 1.95532 22.6431L2.73853 19.5535L0.514893 17.2669C-0.171631 16.5611 -0.171631 15.4371 0.514893 14.7313L2.73853 12.4446L1.95532 9.35504C1.71313 8.39948 2.27637 7.42487 3.2251 7.15778L6.29443 6.29352L7.15869 3.22418C7.42578 2.27545 8.40039 1.71222 9.35596 1.95441L12.4456 2.73761L14.7322 0.513733C15.438 -0.172546 16.562 -0.172546 17.2678 0.513733L19.5544 2.73761L22.6443 1.95441C23.5996 1.71222 24.5742 2.27545 24.8413 3.22418L25.7056 6.29352L28.7749 7.15778C29.7236 7.42487 30.2869 8.39948 30.0447 9.35504L29.2615 12.4446L31.4854 14.7313C32.1716 15.4371 32.1716 16.5611 31.4854 17.2669Z" fill="#FFDE55"/>
<path d="M14.1907 22.3672C8.50293 15.4448 9.91553 5.69019 10.8342 2.33008L9.35596 1.95532C8.40039 1.71313 7.42603 2.27637 7.15869 3.2251L6.29443 6.29443L3.2251 7.15869C2.27637 7.42578 1.71313 8.40039 1.95532 9.35596L2.73853 12.4456L0.514893 14.7322C-0.171631 15.438 -0.171631 16.562 0.514893 17.2678L2.73853 19.5544L1.95532 22.644C1.71313 23.5996 2.27637 24.5742 3.2251 24.8413L6.29443 25.7056L7.15869 28.7749C7.42578 29.7236 8.40039 30.2869 9.35596 30.0447L12.4456 29.2615L14.7324 31.4854C15.4382 32.1716 16.562 32.1716 17.2678 31.4854L18.6543 30.137C17.7646 27.7021 16.3694 25.0188 14.1907 22.3672V22.3672Z" fill="#FFC757"/>
<path d="M26.9871 16C26.9871 22.0681 22.0681 26.9871 16 26.9871C9.93213 26.9871 5.01294 22.0681 5.01294 16C5.01294 9.93188 9.93213 5.01294 16 5.01294C22.0681 5.01294 26.9871 9.93188 26.9871 16V16Z" fill="#FFEB99"/>
<path d="M14.1907 22.3672C10.1814 17.4878 9.7002 11.2007 10.0872 6.73804C7.03564 8.69019 5.01294 12.1089 5.01294 16C5.01294 22.0681 9.93213 26.9871 16 26.9871C16.4136 26.9871 16.823 26.9641 17.2246 26.9197C16.437 25.4272 15.4434 23.8918 14.1907 22.3672Z" fill="#FFE36C"/>
</g>
<defs>
<clipPath id="clip0">
<rect width="32" height="32" fill="white"/>
</clipPath>
</defs>
</svg>
